<svg xmlns="http://www.w3.org/2000/svg" width="66.978" height="23.271" viewBox="0 0 66.978 23.271"><defs><style>.a{fill:#fff;}</style></defs><path class="a" d="M99.022,27.933,97.5,26.827a9.678,9.678,0,0,1-7.871,3.852c-.06-.005-.118-.008-.17-.008A13.075,13.075,0,0,1,82.74,28.6h0a11.987,11.987,0,0,0-6.928-2.159l-.144.009c-7.089.02-12.987,6.024-16.705,11.081C55.52,42.212,50.094,47.8,43.792,47.816c-.058,0-.116,0-.174.008a9.467,9.467,0,0,1-9.69-9.741,9.466,9.466,0,0,1,9.694-9.741c.059,0,.117.007.17.007a13.084,13.084,0,0,1,6.715,2.075l.974-1.612a14.975,14.975,0,0,0-7.73-2.35l-.05-.005h-.049A11.3,11.3,0,0,0,32.044,38.086,11.294,11.294,0,0,0,43.651,49.709l.143-.009c6.644-.018,12.242-5.292,15.98-10.118L62.3,42.625c4.407,4.669,8.906,7.044,13.414,7.061l.05.005h.051A11.3,11.3,0,0,0,87.419,38.061a12,12,0,0,0-1.57-6.042,13.4,13.4,0,0,0,3.645.539l.051.005h.05A11.544,11.544,0,0,0,99.022,27.933ZM75.84,47.806c-.059-.005-.117-.008-.169-.008-4.893-.014-9.229-3.524-11.965-6.42l-2.769-3.344c3.455-4.551,8.693-9.686,14.734-9.7.056,0,.115,0,.174-.009a9.468,9.468,0,0,1,9.69,9.742A9.468,9.468,0,0,1,75.84,47.806ZM97.353,45.5a1.635,1.635,0,0,0-1.636,1.668,1.662,1.662,0,0,0,1.636,1.7,1.688,1.688,0,0,0,1.669-1.7A1.661,1.661,0,0,0,97.353,45.5Z" transform="translate(-32.044 -26.438)"/></svg>